            <svg
              width="150px"
              height="50px"
              viewBox="0 0 150 50"
              version="1.1"
              xmlns="http://www.w3.org/2000/svg"
              xmlns:xlink="http://www.w3.org/1999/xlink"
            >
              <!-- Generator: Sketch 63.1 (92452) - https://sketch.com -->
              <title>Downsview Park Logo</title>
              <defs>
                <linearGradient
                  x1="31.8727761%"
                  y1="50.0320708%"
                  x2="92.6619412%"
                  y2="50.0320708%"
                  id="linearGradient-1"
                >
                  <stop stop-color="#EC008C" offset="0%"></stop>
                  <stop stop-color="#EC008C" offset="11.45%"></stop>
                  <stop stop-color="#F68B1F" offset="52.63%"></stop>
                  <stop stop-color="#F68B1F" offset="100%"></stop>
                </linearGradient>
                <linearGradient
                  x1="15.3271532%"
                  y1="49.9652997%"
                  x2="86.2805635%"
                  y2="49.9652997%"
                  id="linearGradient-2"
                >
                  <stop stop-color="#00ABBD" offset="0%"></stop>
                  <stop stop-color="#00ABBD" offset="18.74%"></stop>
                  <stop stop-color="#00AABE" offset="25.2%"></stop>
                  <stop stop-color="#00AAC2" offset="35.51%"></stop>
                  <stop stop-color="#24AACA" offset="48.38%"></stop>
                  <stop stop-color="#78A9D3" offset="63.17%"></stop>
                  <stop stop-color="#88A8D8" offset="67.41%"></stop>
                  <stop stop-color="#88A8D8" offset="100%"></stop>
                </linearGradient>
                <linearGradient
                  x1="-11.3651316%"
                  y1="50.1517857%"
                  x2="114.319079%"
                  y2="50.1517857%"
                  id="linearGradient-3"
                >
                  <stop stop-color="#00ABBD" offset="0%"></stop>
                  <stop stop-color="#00ABBD" offset="18.74%"></stop>
                  <stop stop-color="#00AABE" offset="25.2%"></stop>
                  <stop stop-color="#00AAC2" offset="35.51%"></stop>
                  <stop stop-color="#24AACA" offset="48.38%"></stop>
                  <stop stop-color="#78A9D3" offset="63.17%"></stop>
                  <stop stop-color="#88A8D8" offset="67.41%"></stop>
                  <stop stop-color="#88A8D8" offset="100%"></stop>
                </linearGradient>
                <linearGradient
                  x1="68.2176481%"
                  y1="50.0320708%"
                  x2="7.42252773%"
                  y2="50.0320708%"
                  id="linearGradient-4"
                >
                  <stop stop-color="#EC008C" offset="0%"></stop>
                  <stop stop-color="#EC008C" offset="11.45%"></stop>
                  <stop stop-color="#F68B1F" offset="52.63%"></stop>
                  <stop stop-color="#F68B1F" offset="100%"></stop>
                </linearGradient>
                <linearGradient
                  x1="84.824498%"
                  y1="50.4398734%"
                  x2="13.8449799%"
                  y2="50.4398734%"
                  id="linearGradient-5"
                >
                  <stop stop-color="#00ABBD" offset="0%"></stop>
                  <stop stop-color="#00ABBD" offset="18.74%"></stop>
                  <stop stop-color="#00AABE" offset="25.2%"></stop>
                  <stop stop-color="#00AAC2" offset="35.51%"></stop>
                  <stop stop-color="#24AACA" offset="48.38%"></stop>
                  <stop stop-color="#78A9D3" offset="63.17%"></stop>
                  <stop stop-color="#88A8D8" offset="67.41%"></stop>
                  <stop stop-color="#88A8D8" offset="100%"></stop>
                </linearGradient>
                <linearGradient
                  x1="112.219079%"
                  y1="50.1517857%"
                  x2="-13.4651316%"
                  y2="50.1517857%"
                  id="linearGradient-6"
                >
                  <stop stop-color="#00ABBD" offset="0%"></stop>
                  <stop stop-color="#00ABBD" offset="18.74%"></stop>
                  <stop stop-color="#00AABE" offset="25.2%"></stop>
                  <stop stop-color="#00AAC2" offset="35.51%"></stop>
                  <stop stop-color="#24AACA" offset="48.38%"></stop>
                  <stop stop-color="#78A9D3" offset="63.17%"></stop>
                  <stop stop-color="#88A8D8" offset="67.41%"></stop>
                  <stop stop-color="#88A8D8" offset="100%"></stop>
                </linearGradient>
              </defs>
              <g
                id="Symbols"
                stroke="none"
                stroke-width="1"
                fill="none"
                fill-rule="evenodd"
                transform="scale(0.50)"
              >
                <g id="logo-2" fill-rule="nonzero">
                  <g id="logo">
                    <path
                      d="M94.3979239,55.2249135 L94.3979239,32.3875433 C94.3979239,31.9723183 94.6055363,31.7647059 95.0207612,31.7647059 L103.429066,31.7647059 C105.193772,31.7647059 106.647059,32.0761246 107.99654,32.6989619 C109.242215,33.3217993 110.280277,34.1522491 111.00692,35.2941176 C111.733564,36.4359862 112.044983,37.6816609 112.044983,39.1349481 L112.044983,48.5813149 C112.044983,50.0346021 111.733564,51.2802768 111.00692,52.4221453 C110.280277,53.5640138 109.242215,54.3944637 107.99654,55.017301 C106.750865,55.6401384 105.193772,55.9515571 103.429066,55.9515571 L95.0207612,55.9515571 C94.6055363,55.8477509 94.3979239,55.6401384 94.3979239,55.2249135 M99.484429,51.6955017 L103.636678,51.6955017 C104.67474,51.6955017 105.50519,51.384083 106.231834,50.6574394 C106.854671,49.9307958 107.269896,48.9965398 107.269896,47.8546713 L107.269896,39.9653979 C107.269896,38.8235294 106.958478,37.7854671 106.33564,37.1626298 C105.712803,36.4359862 104.778547,36.1245675 103.740484,36.1245675 L99.692042,36.1245675 C99.588235,36.1245675 99.484429,36.2283737 99.484429,36.3321799 L99.484429,51.6955017 C99.276817,51.5916955 99.380623,51.6955017 99.484429,51.6955017"
                      id="Shape"
                      fill="#5B1A51"
                    ></path>
                    <path
                      d="M121.179931,55.1211073 C119.83045,54.3944637 118.792388,53.3564014 117.961938,52.0069204 C117.235294,50.6574394 116.820069,49.2041522 116.820069,47.4394464 L116.820069,40.0692042 C116.820069,38.4083045 117.235294,36.8512111 117.961938,35.6055363 C118.688581,34.2560554 119.726644,33.3217993 121.179931,32.5951557 C122.529412,31.8685121 124.086505,31.5570934 125.955017,31.5570934 C127.719723,31.5570934 129.380623,31.8685121 130.730104,32.5951557 C132.079585,33.3217993 133.117647,34.3598616 133.948097,35.6055363 C134.778547,36.8512111 135.089965,38.4083045 135.089965,40.0692042 L135.089965,47.4394464 C135.089965,49.2041522 134.67474,50.6574394 133.948097,52.0069204 C133.221453,53.3564014 132.183391,54.3944637 130.730104,55.1211073 C129.380623,55.8477509 127.823529,56.1591696 125.955017,56.1591696 C124.086505,56.1591696 122.529412,55.8477509 121.179931,55.1211073 M128.965398,50.8650519 C129.795848,50.0346021 130.107266,48.9965398 130.107266,47.6470588 L130.107266,40.0692042 C130.107266,38.7197232 129.692042,37.6816609 128.965398,36.8512111 C128.238754,36.0207612 127.200692,35.6055363 125.851211,35.6055363 C124.605536,35.6055363 123.567474,36.0207612 122.84083,36.8512111 C122.114187,37.6816609 121.698962,38.7197232 121.698962,40.0692042 L121.698962,47.6470588 C121.698962,48.9965398 122.114187,50.0346021 122.84083,50.8650519 C123.567474,51.6955017 124.605536,52.1107266 125.851211,52.1107266 C127.096886,52.1107266 128.134948,51.5916955 128.965398,50.8650519"
                      id="Shape"
                      fill="#5B1A51"
                    ></path>
                    <path
                      d="M144.017301,55.3287197 L137.99654,32.4913495 C137.99654,32.4913495 137.99654,32.3875433 137.99654,32.283737 C137.99654,31.9723183 138.204152,31.7647059 138.515571,31.7647059 L142.460208,31.7647059 C142.771626,31.7647059 142.979239,31.9723183 143.083045,32.283737 L146.301038,45.9861592 C146.301038,46.0899654 146.404844,46.0899654 146.404844,46.0899654 C146.508651,46.0899654 146.508651,46.0899654 146.508651,45.9861592 L149.622837,32.283737 C149.726644,31.9723183 149.934256,31.7647059 150.245675,31.7647059 L154.086505,31.7647059 C154.50173,31.7647059 154.709343,31.9723183 154.709343,32.283737 L158.031142,45.9861592 C158.031142,46.0899654 158.134948,46.0899654 158.134948,46.0899654 C158.238754,46.0899654 158.238754,46.0899654 158.238754,45.9861592 L161.352941,32.283737 C161.456747,31.9723183 161.66436,31.7647059 161.975779,31.7647059 L165.712803,31.7647059 C165.920415,31.7647059 166.024221,31.8685121 166.128028,31.9723183 C166.231834,32.0761246 166.231834,32.283737 166.231834,32.3875433 L160.730104,55.2249135 C160.626298,55.5363322 160.418685,55.7439446 160.107266,55.7439446 L156.370242,55.7439446 C155.955017,55.7439446 155.747405,55.5363322 155.747405,55.2249135 L152.321799,40.5882353 C152.321799,40.4844291 152.217993,40.4844291 152.217993,40.4844291 C152.114187,40.4844291 152.114187,40.4844291 152.114187,40.5882353 L148.896194,55.2249135 C148.792388,55.5363322 148.584775,55.7439446 148.273356,55.7439446 L144.743945,55.7439446 C144.32872,55.8477509 144.121107,55.6401384 144.017301,55.3287197"
                      id="Path"
                      fill="#5B1A51"
                    ></path>
                    <path
                      d="M170.591696,55.2249135 L170.591696,32.3875433 C170.591696,31.9723183 170.799308,31.7647059 171.214533,31.7647059 L174.743945,31.7647059 C175.055363,31.7647059 175.262976,31.8685121 175.470588,32.1799308 L184.086505,46.5051903 C184.086505,46.6089965 184.190311,46.6089965 184.190311,46.6089965 C184.294118,46.6089965 184.294118,46.5051903 184.294118,46.4013841 L184.294118,32.3875433 C184.294118,31.9723183 184.50173,31.7647059 184.916955,31.7647059 L188.550173,31.7647059 C188.965398,31.7647059 189.17301,31.9723183 189.17301,32.3875433 L189.17301,55.2249135 C189.17301,55.6401384 188.965398,55.8477509 188.550173,55.8477509 L185.020761,55.8477509 C184.709343,55.8477509 184.50173,55.7439446 184.294118,55.432526 L175.678201,41.0034602 C175.678201,40.899654 175.574394,40.899654 175.574394,40.899654 C175.470588,40.899654 175.470588,41.0034602 175.470588,41.1072664 L175.470588,55.3287197 C175.470588,55.7439446 175.262976,55.9515571 174.847751,55.9515571 L171.214533,55.9515571 C170.799308,55.8477509 170.591696,55.6401384 170.591696,55.2249135"
                      id="Path"
                      fill="#5B1A51"
                    ></path>
                    <path
                      d="M198.307958,55.2249135 C196.958478,54.6020761 195.920415,53.7716263 195.193772,52.733564 C194.467128,51.6955017 194.051903,50.3460208 194.051903,48.9965398 L194.051903,48.3737024 C194.051903,47.9584775 194.259516,47.7508651 194.67474,47.7508651 L198.307958,47.7508651 C198.723183,47.7508651 198.930796,47.8546713 198.930796,48.16609 L198.930796,48.6851211 C198.930796,49.6193772 199.346021,50.3460208 200.176471,50.9688581 C201.00692,51.5916955 202.148789,51.9031142 203.49827,51.9031142 C204.743945,51.9031142 205.574394,51.6955017 206.197232,51.1764706 C206.820069,50.6574394 207.027682,50.0346021 207.027682,49.3079585 C207.027682,48.7889273 206.820069,48.2698962 206.508651,47.9584775 C206.093426,47.5432526 205.678201,47.2318339 205.055363,46.9204152 C204.432526,46.6089965 203.394464,46.1937716 202.044983,45.7785467 C200.487889,45.2595156 199.138408,44.7404844 198.100346,44.1176471 C197.062284,43.5986159 196.128028,42.7681661 195.401384,41.83391 C194.67474,40.899654 194.259516,39.7577855 194.259516,38.3044983 C194.259516,36.9550173 194.570934,35.7093426 195.297578,34.6712803 C196.024221,33.633218 196.958478,32.8027682 198.307958,32.283737 C199.553633,31.7647059 201.00692,31.4532872 202.66782,31.4532872 C204.432526,31.4532872 205.989619,31.7647059 207.3391,32.3875433 C208.688581,33.0103806 209.83045,33.8408304 210.557093,34.982699 C211.283737,36.1245675 211.698962,37.3702422 211.698962,38.8235294 L211.698962,39.1349481 C211.698962,39.550173 211.491349,39.7577855 211.076125,39.7577855 L207.442907,39.7577855 C207.027682,39.7577855 206.820069,39.6539792 206.820069,39.4463668 L206.820069,39.1349481 C206.820069,38.200692 206.404844,37.3702422 205.678201,36.6435986 C204.847751,35.916955 203.809689,35.6055363 202.460208,35.6055363 C201.318339,35.6055363 200.487889,35.8131488 199.968858,36.3321799 C199.346021,36.7474048 199.034602,37.3702422 199.034602,38.200692 C199.034602,38.8235294 199.242215,39.2387543 199.553633,39.6539792 C199.865052,40.0692042 200.384083,40.3806228 201.110727,40.6920415 C201.83737,41.0034602 202.875433,41.4186851 204.32872,41.9377163 C205.885813,42.5605536 207.235294,43.0795848 208.16955,43.4948097 C209.103806,43.9100346 209.934256,44.6366782 210.6609,45.5709343 C211.387543,46.5051903 211.802768,47.6470588 211.802768,49.100346 C211.802768,50.449827 211.387543,51.6955017 210.764706,52.733564 C210.038062,53.7716263 209,54.6020761 207.754325,55.1211073 C206.404844,55.7439446 204.847751,55.9515571 203.083045,55.9515571 C201.214533,56.0553633 199.657439,55.7439446 198.307958,55.2249135"
                      id="Path"
                      fill="#5B1A51"
                    ></path>
                    <path
                      d="M222.183391,55.3287197 L215.228374,32.3875433 C215.228374,32.3875433 215.228374,32.283737 215.228374,32.1799308 C215.228374,31.8685121 215.435986,31.7647059 215.747405,31.7647059 L219.692042,31.7647059 C220.00346,31.7647059 220.211073,31.9723183 220.314879,32.283737 L224.778547,48.8927336 C224.778547,48.9965398 224.882353,48.9965398 224.882353,48.9965398 C224.882353,48.9965398 224.986159,48.9965398 224.986159,48.8927336 L229.449827,32.3875433 C229.553633,32.0761246 229.761246,31.8685121 230.072664,31.8685121 L233.913495,31.8685121 C234.121107,31.8685121 234.224913,31.9723183 234.32872,32.0761246 C234.432526,32.1799308 234.432526,32.3875433 234.32872,32.4913495 L227.269896,55.432526 C227.16609,55.7439446 226.958478,55.9515571 226.647059,55.9515571 L222.702422,55.9515571 C222.49481,55.8477509 222.287197,55.6401384 222.183391,55.3287197"
                      id="Path"
                      fill="#5B1A51"
                    ></path>
                    <path
                      d="M239.311419,55.2249135 L239.311419,32.3875433 C239.311419,31.9723183 239.519031,31.7647059 239.934256,31.7647059 L243.567474,31.7647059 C243.982699,31.7647059 244.190311,31.9723183 244.190311,32.3875433 L244.190311,55.2249135 C244.190311,55.6401384 243.982699,55.8477509 243.567474,55.8477509 L239.934256,55.8477509 C239.519031,55.8477509 239.311419,55.6401384 239.311419,55.2249135"
                      id="Path"
                      fill="#5B1A51"
                    ></path>
                    <path
                      d="M266.197232,35.916955 L255.089965,35.916955 C254.986159,35.916955 254.882353,36.0207612 254.882353,36.1245675 L254.882353,41.4186851 C254.882353,41.5224913 254.986159,41.6262976 255.089965,41.6262976 L262.252595,41.6262976 C262.66782,41.6262976 262.875433,41.83391 262.875433,42.2491349 L262.875433,45.2595156 C262.875433,45.6747405 262.66782,45.8823529 262.252595,45.8823529 L255.089965,45.8823529 C254.986159,45.8823529 254.882353,45.9861592 254.882353,46.0899654 L254.882353,51.5916955 C254.882353,51.6955017 254.986159,51.799308 255.089965,51.799308 L266.197232,51.799308 C266.612457,51.799308 266.820069,52.0069204 266.820069,52.4221453 L266.820069,55.432526 C266.820069,55.8477509 266.612457,56.0553633 266.197232,56.0553633 L250.626298,56.0553633 C250.211073,56.0553633 250.00346,55.8477509 250.00346,55.432526 L250.00346,32.5951557 C250.00346,32.1799308 250.211073,31.9723183 250.626298,31.9723183 L266.197232,31.9723183 C266.612457,31.9723183 266.820069,32.1799308 266.820069,32.5951557 L266.820069,35.2941176 C266.820069,35.7093426 266.612457,35.916955 266.197232,35.916955"
                      id="Path"
                      fill="#5B1A51"
                    ></path>
                    <path
                      d="M276.681661,55.3287197 L270.6609,32.4913495 C270.6609,32.4913495 270.6609,32.3875433 270.6609,32.283737 C270.6609,31.9723183 270.868512,31.7647059 271.179931,31.7647059 L275.124567,31.7647059 C275.435986,31.7647059 275.643599,31.9723183 275.747405,32.283737 L278.965398,45.9861592 C278.965398,46.0899654 279.069204,46.0899654 279.069204,46.0899654 C279.17301,46.0899654 279.17301,46.0899654 279.17301,45.9861592 L282.287197,32.283737 C282.391003,31.9723183 282.598616,31.7647059 282.910035,31.7647059 L286.750865,31.7647059 C287.16609,31.7647059 287.373702,31.9723183 287.373702,32.283737 L290.695502,45.9861592 C290.695502,46.0899654 290.799308,46.0899654 290.799308,46.0899654 C290.903114,46.0899654 290.903114,46.0899654 290.903114,45.9861592 L294.017301,32.283737 C294.121107,31.9723183 294.32872,31.7647059 294.640138,31.7647059 L298.377163,31.7647059 C298.584775,31.7647059 298.688581,31.8685121 298.792388,31.9723183 C298.896194,32.0761246 298.896194,32.283737 298.792388,32.3875433 L293.290657,55.2249135 C293.186851,55.5363322 292.979239,55.7439446 292.66782,55.7439446 L288.930796,55.7439446 C288.515571,55.7439446 288.307958,55.5363322 288.307958,55.2249135 L284.882353,40.5882353 C284.882353,40.4844291 284.778547,40.4844291 284.778547,40.4844291 C284.67474,40.4844291 284.67474,40.4844291 284.67474,40.5882353 L281.456747,55.2249135 C281.352941,55.5363322 281.145329,55.7439446 280.83391,55.7439446 L277.304498,55.7439446 C276.99308,55.8477509 276.785467,55.6401384 276.681661,55.3287197"
                      id="Path"
                      fill="#5B1A51"
                    ></path>
                    <path
                      d="M179.207612,68.7197232 C179.934256,69.1349481 180.453287,69.6539792 180.868512,70.3806228 C181.283737,71.1072664 181.491349,71.83391 181.491349,72.7681661 C181.491349,73.7024221 181.283737,74.4290657 180.868512,75.1557093 C180.453287,75.7785467 179.934256,76.4013841 179.207612,76.7128028 C178.480969,77.1280277 177.650519,77.2318339 176.716263,77.2318339 L173.705882,77.2318339 C173.602076,77.2318339 173.602076,77.2318339 173.602076,77.3356401 L173.602076,82.5259516 C173.602076,82.733564 173.49827,82.8373702 173.290657,82.8373702 L171.00692,82.8373702 C170.799308,82.8373702 170.695502,82.733564 170.695502,82.5259516 L170.695502,68.5121107 C170.695502,68.3044983 170.799308,68.200692 171.00692,68.200692 L176.820069,68.200692 C177.650519,68.200692 178.480969,68.4083045 179.207612,68.7197232 M177.858131,74.3252595 C178.273356,73.9100346 178.480969,73.4948097 178.480969,72.8719723 C178.480969,72.2491349 178.273356,71.7301038 177.858131,71.4186851 C177.442907,71.0034602 176.923875,70.899654 176.301038,70.899654 L173.602076,70.899654 C173.49827,70.899654 173.49827,70.899654 173.49827,71.0034602 L173.49827,74.7404844 C173.49827,74.8442907 173.49827,74.8442907 173.602076,74.8442907 L176.301038,74.8442907 C176.923875,74.8442907 177.442907,74.6366782 177.858131,74.3252595"
                      id="Shape"
                      fill="#00ABBD"
                    ></path>
                    <path
                      d="M192.287197,82.6297578 L191.66436,80.6574394 C191.66436,80.5536332 191.560554,80.5536332 191.560554,80.5536332 L186.370242,80.5536332 C186.266436,80.5536332 186.266436,80.5536332 186.266436,80.6574394 L185.643599,82.6297578 C185.539792,82.8373702 185.435986,82.9411765 185.228374,82.9411765 L182.737024,82.9411765 C182.633218,82.9411765 182.529412,82.9411765 182.425606,82.8373702 C182.321799,82.733564 182.321799,82.6297578 182.425606,82.5259516 L186.889273,68.5121107 C186.99308,68.3044983 187.096886,68.200692 187.304498,68.200692 L190.418685,68.200692 C190.626298,68.200692 190.730104,68.3044983 190.83391,68.5121107 L195.297578,82.5259516 C195.297578,82.5259516 195.297578,82.6297578 195.297578,82.6297578 C195.297578,82.733564 195.297578,82.733564 195.193772,82.8373702 C195.089965,82.8373702 195.089965,82.9411765 194.986159,82.9411765 L192.49481,82.9411765 C192.49481,82.9411765 192.391003,82.8373702 192.287197,82.6297578 M187.200692,78.2698962 L190.937716,78.2698962 C191.041522,78.2698962 191.041522,78.2698962 191.041522,78.16609 L189.17301,71.7301038 C189.17301,71.6262976 189.17301,71.6262976 189.069204,71.6262976 C189.069204,71.6262976 188.965398,71.6262976 188.965398,71.7301038 L187.096886,78.16609 C186.99308,78.2698962 187.096886,78.2698962 187.200692,78.2698962"
                      id="Shape"
                      fill="#00ABBD"
                    ></path>
                    <path
                      d="M207.235294,82.733564 L204.640138,77.0242215 C204.640138,76.9204152 204.536332,76.9204152 204.536332,76.9204152 L202.66782,76.9204152 C202.564014,76.9204152 202.564014,76.9204152 202.564014,77.0242215 L202.564014,82.6297578 C202.564014,82.8373702 202.460208,82.9411765 202.252595,82.9411765 L199.968858,82.9411765 C199.761246,82.9411765 199.657439,82.8373702 199.657439,82.6297578 L199.657439,68.5121107 C199.657439,68.3044983 199.761246,68.200692 199.968858,68.200692 L205.885813,68.200692 C206.820069,68.200692 207.546713,68.4083045 208.273356,68.7197232 C209,69.1349481 209.519031,69.6539792 209.83045,70.2768166 C210.245675,71.0034602 210.349481,71.7301038 210.349481,72.5605536 C210.349481,73.4948097 210.141869,74.3252595 209.622837,75.0519031 C209.103806,75.7785467 208.480969,76.1937716 207.650519,76.5051903 C207.650519,76.5051903 207.546713,76.5051903 207.546713,76.6089965 C207.546713,76.6089965 207.546713,76.7128028 207.546713,76.7128028 L210.349481,82.5259516 C210.349481,82.6297578 210.453287,82.6297578 210.453287,82.733564 C210.453287,82.8373702 210.453287,82.8373702 210.349481,82.9411765 C210.245675,82.9411765 210.245675,83.0449827 210.141869,83.0449827 L207.650519,83.0449827 C207.442907,82.9411765 207.3391,82.8373702 207.235294,82.733564 M202.460208,70.899654 L202.460208,74.4290657 C202.460208,74.532872 202.460208,74.532872 202.564014,74.532872 L205.262976,74.532872 C205.885813,74.532872 206.301038,74.3252595 206.716263,74.0138408 C207.131488,73.7024221 207.235294,73.183391 207.235294,72.6643599 C207.235294,72.1453287 207.027682,71.6262976 206.716263,71.3148789 C206.301038,71.0034602 205.885813,70.7958478 205.262976,70.7958478 L202.564014,70.7958478 C202.460208,70.7958478 202.460208,70.7958478 202.460208,70.899654"
                      id="Shape"
                      fill="#00ABBD"
                    ></path>
                    <path
                      d="M215.020761,82.6297578 L215.020761,68.615917 C215.020761,68.4083045 215.124567,68.3044983 215.33218,68.3044983 L217.615917,68.3044983 C217.823529,68.3044983 217.927336,68.4083045 217.927336,68.615917 L217.927336,74.3252595 C217.927336,74.4290657 217.927336,74.4290657 218.031142,74.4290657 C218.031142,74.4290657 218.134948,74.4290657 218.134948,74.4290657 L222.910035,68.5121107 C223.013841,68.4083045 223.117647,68.3044983 223.32526,68.3044983 L225.920415,68.3044983 C226.024221,68.3044983 226.128028,68.3044983 226.128028,68.3044983 C226.231834,68.3044983 226.231834,68.4083045 226.231834,68.5121107 C226.231834,68.615917 226.231834,68.615917 226.128028,68.7197232 L221.560554,74.532872 C221.560554,74.532872 221.560554,74.6366782 221.560554,74.7404844 L226.439446,82.6297578 C226.439446,82.733564 226.543253,82.733564 226.543253,82.8373702 C226.543253,82.9411765 226.439446,83.0449827 226.231834,83.0449827 L223.636678,83.0449827 C223.429066,83.0449827 223.32526,82.9411765 223.221453,82.8373702 L219.484429,76.816609 C219.484429,76.816609 219.484429,76.7128028 219.380623,76.7128028 C219.380623,76.7128028 219.276817,76.7128028 219.276817,76.816609 L218.031142,78.4775087 C218.031142,78.5813149 217.927336,78.5813149 217.927336,78.5813149 L217.927336,82.6297578 C217.927336,82.8373702 217.823529,82.9411765 217.615917,82.9411765 L215.33218,82.9411765 C215.124567,82.9411765 215.020761,82.8373702 215.020761,82.6297578"
                      id="Path"
                      fill="#00ABBD"
                    ></path>
                    <path
                      d="M179.103806,5.39792388 C179.83045,5.81314879 180.349481,6.33217993 180.764706,6.9550173 C181.179931,7.6816609 181.387543,8.4083045 181.387543,9.34256055 C181.387543,10.1730104 181.179931,11.0034602 180.764706,11.6262976 C180.349481,12.2491349 179.83045,12.7681661 179.103806,13.183391 C178.377163,13.5986159 177.546713,13.7024221 176.612457,13.7024221 L173.705882,13.7024221 C173.602076,13.7024221 173.602076,13.7024221 173.602076,13.8062284 L173.602076,18.9965398 C173.602076,19.2041522 173.49827,19.3079585 173.290657,19.3079585 L171.110727,19.3079585 C170.903114,19.3079585 170.799308,19.2041522 170.799308,18.9965398 L170.799308,5.19031142 C170.799308,4.98269896 170.903114,4.87889273 171.110727,4.87889273 L176.923875,4.87889273 C177.650519,4.87889273 178.377163,4.98269896 179.103806,5.39792388 M177.858131,10.899654 C178.273356,10.4844291 178.480969,10.0692042 178.480969,9.44636678 C178.480969,8.82352941 178.273356,8.30449827 177.858131,7.99307958 C177.442907,7.57785467 176.923875,7.47404844 176.301038,7.47404844 L173.705882,7.47404844 C173.602076,7.47404844 173.602076,7.47404844 173.602076,7.57785467 L173.602076,11.4186851 C173.602076,11.5224913 173.602076,11.5224913 173.705882,11.5224913 L176.301038,11.5224913 C176.923875,11.4186851 177.442907,11.2110727 177.858131,10.899654"
                      id="Shape"
                      fill="#00ABBD"
                    ></path>
                    <path
                      d="M192.702422,19.2041522 L192.079585,17.2318339 C192.079585,17.1280277 191.975779,17.1280277 191.975779,17.1280277 L186.889273,17.1280277 C186.785467,17.1280277 186.785467,17.1280277 186.785467,17.2318339 L186.16263,19.2041522 C186.058824,19.4117647 185.955017,19.5155709 185.747405,19.5155709 L183.359862,19.5155709 C183.256055,19.5155709 183.152249,19.5155709 183.048443,19.4117647 C182.944637,19.3079585 182.944637,19.2041522 183.048443,19.100346 L187.512111,5.19031142 C187.615917,4.98269896 187.719723,4.87889273 187.927336,4.87889273 L191.041522,4.87889273 C191.249135,4.87889273 191.352941,4.98269896 191.456747,5.19031142 L195.920415,19.100346 C195.920415,19.100346 195.920415,19.2041522 195.920415,19.2041522 C195.920415,19.3079585 195.920415,19.3079585 195.816609,19.4117647 C195.816609,19.4117647 195.712803,19.5155709 195.608997,19.5155709 L193.117647,19.5155709 C192.910035,19.4117647 192.806228,19.3079585 192.702422,19.2041522 M187.615917,14.8442907 L191.352941,14.8442907 C191.456747,14.8442907 191.456747,14.8442907 191.456747,14.7404844 L189.484429,8.30449827 C189.484429,8.20069204 189.484429,8.20069204 189.380623,8.20069204 C189.380623,8.20069204 189.276817,8.20069204 189.276817,8.30449827 L187.408304,14.6366782 C187.512111,14.7404844 187.512111,14.8442907 187.615917,14.8442907"
                      id="Shape"
                      fill="#00ABBD"
                    ></path>
                    <path
                      d="M207.131488,19.2041522 L204.536332,13.4948097 C204.536332,13.3910035 204.432526,13.3910035 204.432526,13.3910035 L202.564014,13.3910035 C202.460208,13.3910035 202.460208,13.3910035 202.460208,13.4948097 L202.460208,19.100346 C202.460208,19.3079585 202.356401,19.4117647 202.148789,19.4117647 L199.865052,19.4117647 C199.657439,19.4117647 199.553633,19.3079585 199.553633,19.100346 L199.553633,5.19031142 C199.553633,4.98269896 199.657439,4.87889273 199.865052,4.87889273 L205.678201,4.87889273 C206.612457,4.87889273 207.3391,5.08650519 208.065744,5.39792388 C208.688581,5.81314879 209.311419,6.33217993 209.622837,6.9550173 C210.038062,7.57785467 210.141869,8.4083045 210.141869,9.23875433 C210.141869,10.1730104 209.934256,11.0034602 209.415225,11.7301038 C208.896194,12.4567474 208.273356,12.8719723 207.442907,13.183391 C207.442907,13.183391 207.3391,13.183391 207.3391,13.2871972 C207.3391,13.2871972 207.3391,13.3910035 207.3391,13.3910035 L210.141869,19.100346 C210.141869,19.2041522 210.245675,19.2041522 210.245675,19.3079585 C210.245675,19.4117647 210.245675,19.4117647 210.141869,19.5155709 C210.038062,19.5155709 210.038062,19.6193772 209.934256,19.6193772 L207.546713,19.6193772 C207.442907,19.4117647 207.235294,19.3079585 207.131488,19.2041522 M202.460208,7.47404844 L202.460208,11.0034602 C202.460208,11.1072664 202.460208,11.1072664 202.564014,11.1072664 L205.262976,11.1072664 C205.885813,11.1072664 206.301038,10.899654 206.716263,10.5882353 C207.131488,10.2768166 207.235294,9.75778547 207.235294,9.23875433 C207.235294,8.71972318 207.027682,8.20069204 206.716263,7.88927336 C206.301038,7.57785467 205.885813,7.37024221 205.262976,7.37024221 L202.564014,7.37024221 C202.460208,7.37024221 202.460208,7.37024221 202.460208,7.47404844"
                      id="Shape"
                      fill="#00ABBD"
                    ></path>
                    <path
                      d="M216.370242,18.9965398 C215.539792,18.5813149 214.916955,17.9584775 214.50173,17.2318339 C214.086505,16.5051903 213.878893,15.5709343 213.878893,14.6366782 L213.878893,9.75778547 C213.878893,8.71972318 214.086505,7.88927336 214.50173,7.05882353 C214.916955,6.33217993 215.539792,5.70934256 216.370242,5.29411765 C217.200692,4.87889273 218.134948,4.67128028 219.276817,4.67128028 C220.314879,4.67128028 221.249135,4.87889273 222.079585,5.29411765 C222.910035,5.70934256 223.532872,6.2283737 223.948097,6.9550173 C224.363322,7.6816609 224.67474,8.51211073 224.67474,9.44636678 C224.67474,9.55017301 224.570934,9.65397924 224.363322,9.65397924 L222.079585,9.75778547 L221.975779,9.75778547 C221.768166,9.75778547 221.66436,9.75778547 221.66436,9.65397924 L221.66436,9.65397924 C221.66436,8.92733564 221.456747,8.30449827 220.937716,7.88927336 C220.522491,7.47404844 219.899654,7.26643599 219.17301,7.26643599 C218.446367,7.26643599 217.823529,7.47404844 217.408304,7.88927336 C216.99308,8.30449827 216.681661,8.92733564 216.681661,9.65397924 L216.681661,14.6366782 C216.681661,15.3633218 216.889273,15.9861592 217.408304,16.4013841 C217.823529,16.816609 218.446367,17.0242215 219.17301,17.0242215 C219.899654,17.0242215 220.522491,16.816609 220.937716,16.4013841 C221.352941,15.9861592 221.66436,15.3633218 221.66436,14.6366782 C221.66436,14.532872 221.66436,14.532872 221.768166,14.4290657 C221.871972,14.4290657 221.871972,14.3252595 221.975779,14.4290657 L224.259516,14.532872 C224.467128,14.532872 224.570934,14.6366782 224.570934,14.6366782 L224.570934,14.7404844 C224.570934,15.6747405 224.363322,16.5051903 223.844291,17.3356401 C223.429066,18.0622837 222.806228,18.6851211 221.975779,18.9965398 C221.145329,19.4117647 220.211073,19.6193772 219.17301,19.6193772 C218.134948,19.6193772 217.200692,19.4117647 216.370242,18.9965398"
                      id="Path"
                      fill="#00ABBD"
                    ></path>
                    <path
                      d="M37.4083045,86.0553633 L37.4083045,1.97231834 C37.4083045,0.934256055 36.5778547,0 35.4359862,0 C34.2941176,0 33.4636678,0.934256055 33.4636678,1.97231834 L33.4636678,18.7889273 C30.2456747,14.8442907 25.2629758,12.2491349 19.449827,11.83391 C18.4117647,11.7301038 17.3737024,12.5605536 17.2698962,13.7024221 C17.16609,14.8442907 17.9965398,15.7785467 19.1384083,15.8823529 C27.4429066,16.5051903 33.4636678,22.5259516 33.4636678,30.1038062 L33.4636678,36.6435986 C32.3217993,34.6712803 30.9723183,32.8027682 29.4152249,31.0380623 C24.2249135,25.432526 17.2698962,21.9031142 9.5882353,21.2802768 C8.44636678,21.1764706 7.51211073,22.0069204 7.4083045,23.0449827 C7.30449827,24.1868512 8.1349481,25.1211073 9.1730104,25.2249135 C15.7128028,25.8477509 21.8373702,28.8581315 26.4048443,33.7370242 C30.9723183,38.615917 33.4636678,45.0519031 33.4636678,51.6955017 L33.4636678,55.017301 C31.9065744,51.5916955 29.8304498,48.4775087 27.3391003,45.5709343 C20.9031142,38.0968858 12.0795848,33.1141869 2.32179931,31.4532872 C1.28373702,31.2456747 0.24567474,31.9723183 0.03806228,33.1141869 C-0.169550173,34.1522491 0.55709343,35.1903114 1.69896194,35.3979239 C10.4186851,36.8512111 18.5155709,41.3148789 24.3287197,48.16609 C30.2456747,55.017301 33.4636678,63.7370242 33.4636678,72.7681661 L33.4636678,86.0553633 C33.4636678,87.1972318 34.3979239,88.0276817 35.4359862,88.0276817 C36.5778547,88.1314879 37.4083045,87.1972318 37.4083045,86.0553633 Z"
                      id="Path"
                      fill="url(#linearGradient-1)"
                    ></path>
                    <path
                      d="M24.2249135,76.2975779 C24.2249135,77.4394464 25.1591696,78.2698962 26.1972318,78.2698962 C27.3391003,78.2698962 28.1695502,77.3356401 28.1695502,76.2975779 C28.1695502,68.615917 25.9896194,61.349481 21.9411765,55.7439446 C17.6851211,49.6193772 11.4567474,45.9861592 4.5017301,45.3633218 C4.39792388,45.3633218 4.39792388,45.3633218 4.29411765,45.3633218 C3.25605536,45.3633218 2.42560554,46.1937716 2.32179931,47.2318339 C2.21799308,48.3737024 3.04844291,49.3079585 4.08650519,49.4117647 C14.1557093,50.1384083 24.2249135,59.6885813 24.2249135,76.2975779 Z"
                      id="Path"
                      fill="url(#linearGradient-2)"
                    ></path>
                    <path
                      d="M14.9861592,72.6643599 C14.9861592,73.8062284 15.9204152,74.6366782 16.9584775,74.6366782 C18.100346,74.6366782 18.9307958,73.7024221 18.9307958,72.6643599 C18.9307958,64.1522491 12.7024221,57.1972318 5.12456747,57.1972318 C3.98269896,57.1972318 3.15224913,58.1314879 3.15224913,59.1695502 C3.25605536,60.3114187 4.08650519,61.2456747 5.2283737,61.2456747 C10.6262976,61.2456747 14.9861592,66.3321799 14.9861592,72.6643599 Z"
                      id="Path"
                      fill="url(#linearGradient-3)"
                    ></path>
                    <path
                      d="M46.2318339,86.0553633 L46.2318339,72.8719723 C46.2318339,63.8408304 49.449827,55.1211073 55.366782,48.2698962 C61.1799308,41.5224913 69.1730104,36.9550173 77.9965398,35.5017301 C79.0346021,35.2941176 79.8650519,34.2560554 79.6574394,33.2179931 C79.449827,32.1799308 78.4117647,31.349481 77.3737024,31.5570934 C67.7197232,33.1141869 58.7923875,38.0968858 52.3564014,45.6747405 C49.8650519,48.5813149 47.8927336,51.6955017 46.2318339,55.1211073 L46.2318339,51.6955017 C46.2318339,45.0519031 48.7231834,38.615917 53.2906574,33.7370242 C57.7543253,28.8581315 63.8788927,25.8477509 70.5224913,25.2249135 C71.6643599,25.1211073 72.3910035,24.1868512 72.2871972,23.0449827 C72.183391,21.9031142 71.2491349,21.1764706 70.1072664,21.2802768 C62.5294118,21.9031142 55.4705882,25.432526 50.2802768,31.0380623 C48.7231834,32.8027682 47.3737024,34.6712803 46.2318339,36.6435986 L46.2318339,30.1038062 C46.2318339,22.5259516 52.2525952,16.6089965 60.5570934,15.8823529 C61.6989619,15.7785467 62.4256055,14.8442907 62.4256055,13.7024221 C62.3217993,12.5605536 61.3875433,11.83391 60.2456747,11.83391 C54.432526,12.3529412 49.449827,14.9480969 46.2318339,18.7889273 L46.2318339,1.97231834 C46.2318339,0.830449827 45.2975779,0 44.2595156,0 C43.1176471,0 42.2871972,0.934256055 42.2871972,1.97231834 L42.2871972,86.0553633 C42.2871972,87.1972318 43.2214533,88.0276817 44.2595156,88.0276817 C45.4013841,88.1314879 46.2318339,87.1972318 46.2318339,86.0553633 Z"
                      id="Path"
                      fill="url(#linearGradient-4)"
                    ></path>
                    <path
                      d="M77.3737024,47.1280277 C77.2698962,46.0899654 76.4394464,45.2595156 75.4013841,45.2595156 C75.2975779,45.2595156 75.2975779,45.2595156 75.1937716,45.2595156 C68.2387543,45.8823529 62.1141869,49.5155709 57.7543253,55.5363322 C53.7058824,61.1418685 51.5259516,68.5121107 51.5259516,76.0899654 C51.5259516,77.2318339 52.4602076,78.0622837 53.4982699,78.0622837 C54.5363322,78.0622837 55.4705882,77.1280277 55.4705882,76.0899654 C55.4705882,59.5847751 65.5397924,50.0346021 75.5051903,49.2041522 C76.6470588,49.2041522 77.3737024,48.2698962 77.3737024,47.1280277 Z"
                      id="Path"
                      fill="url(#linearGradient-5)"
                    ></path>
                    <path
                      d="M76.4394464,59.1695502 C76.4394464,58.0276817 75.5051903,57.1972318 74.467128,57.1972318 C66.8892734,57.1972318 60.6608997,64.1522491 60.6608997,72.6643599 C60.6608997,73.8062284 61.5951557,74.6366782 62.633218,74.6366782 C63.7750865,74.6366782 64.6055363,73.7024221 64.6055363,72.6643599 C64.6055363,66.3321799 68.9653979,61.2456747 74.3633218,61.2456747 C75.6089965,61.2456747 76.4394464,60.3114187 76.4394464,59.1695502 Z"
                      id="Path"
                      fill="url(#linearGradient-6)"
                    ></path>
                  </g>
                </g>
              </g>
            </svg>